<svg width="32" height="32" viewBox="0 0 32 32" xmlns="http://www.w3.org/2000/svg">
  <defs>
    <linearGradient id="chipGradient" x1="0%" y1="0%" x2="100%" y2="100%">
      <stop offset="0%" style="stop-color:#A8D0F0;stop-opacity:1" />
      <stop offset="100%" style="stop-color:#7FB8E5;stop-opacity:1" />
    </linearGradient>
    <filter id="dropshadow" x="-50%" y="-50%" width="200%" height="200%">
      <feDropShadow dx="1" dy="1" stdDeviation="1" flood-color="#000000" flood-opacity="0.3"/>
    </filter>
  </defs>
  
  <!-- Memory chip body -->
  <rect x="10" y="4" width="12" height="24" rx="1" ry="1" fill="url(#chipGradient)" filter="url(#dropshadow)"/>
  
  <!-- Memory chip pins (left side) -->
  <rect x="8" y="6" width="2" height="1" fill="#4A90C2"/>
  <rect x="8" y="8" width="2" height="1" fill="#4A90C2"/>
  <rect x="8" y="10" width="2" height="1" fill="#4A90C2"/>
  <rect x="8" y="12" width="2" height="1" fill="#4A90C2"/>
  <rect x="8" y="14" width="2" height="1" fill="#4A90C2"/>
  <rect x="8" y="16" width="2" height="1" fill="#4A90C2"/>
  <rect x="8" y="18" width="2" height="1" fill="#4A90C2"/>
  <rect x="8" y="20" width="2" height="1" fill="#4A90C2"/>
  <rect x="8" y="22" width="2" height="1" fill="#4A90C2"/>
  <rect x="8" y="24" width="2" height="1" fill="#4A90C2"/>
  <rect x="8" y="26" width="2" height="1" fill="#4A90C2"/>
  
  <!-- Memory chip pins (right side) -->
  <rect x="22" y="6" width="2" height="1" fill="#4A90C2"/>
  <rect x="22" y="8" width="2" height="1" fill="#4A90C2"/>
  <rect x="22" y="10" width="2" height="1" fill="#4A90C2"/>
  <rect x="22" y="12" width="2" height="1" fill="#4A90C2"/>
  <rect x="22" y="14" width="2" height="1" fill="#4A90C2"/>
  <rect x="22" y="16" width="2" height="1" fill="#4A90C2"/>
  <rect x="22" y="18" width="2" height="1" fill="#4A90C2"/>
  <rect x="22" y="20" width="2" height="1" fill="#4A90C2"/>
  <rect x="22" y="22" width="2" height="1" fill="#4A90C2"/>
  <rect x="22" y="24" width="2" height="1" fill="#4A90C2"/>
  <rect x="22" y="26" width="2" height="1" fill="#4A90C2"/>
  
  <!-- Memory chip notch -->
  <rect x="14" y="4" width="4" height="1" rx="0.5" ry="0.5" fill="#5A9BD4"/>
  
  <!-- Memory chip label area -->
  <rect x="11" y="12" width="10" height="8" rx="1" ry="1" fill="#E8F4FD" opacity="0.6"/>
</svg>